HIERARCHY
ROOT Hips
{
  OFFSET 5.84602e-005 68.8428 3.50346
  CHANNELS 6 Xposition Yposition Zposition Zrotation Xrotation Yrotation
  JOINT Spine
  {
    OFFSET 0 8.597 -4.6522
    CHANNELS 3 Zrotation Xrotation Yrotation
    JOINT Spine1
    {
      OFFSET 0 7.8454 0.4098
      CHANNELS 3 Zrotation Xrotation Yrotation
      JOINT Spine2
      {
        OFFSET 0 9.7078 -2.1609
        CHANNELS 3 Zrotation Xrotation Yrotation
        JOINT Neck
        {
          OFFSET 0 21.8761 -0.4549
          CHANNELS 3 Zrotation Xrotation Yrotation
          JOINT Head
          {
            OFFSET 0 12.3537 3.3602
            CHANNELS 3 Zrotation Xrotation Yrotation
            End Site
            {
              OFFSET 0.0001 18.9506 0.5657
            }
          }
        }
        JOINT LeftShoulder
        {
          OFFSET 2.2086 21.1115 7.2329
          CHANNELS 3 Zrotation Xrotation Yrotation
          JOINT LeftArm
          {
            OFFSET 13.1193 3.0282 -4.8998
            CHANNELS 3 Zrotation Xrotation Yrotation
            JOINT LeftForeArm
            {
              OFFSET 27.4081 -0.0973053 -0.2375
              CHANNELS 3 Zrotation Xrotation Yrotation
              JOINT LeftHand
              {
                OFFSET 22.8641 0.0662994 -0.1369
                CHANNELS 3 Zrotation Xrotation Yrotation
                JOINT LeftHandIndex1
                {
                  OFFSET 8.8614 0.775009 2.4612
                  CHANNELS 3 Zrotation Xrotation Yrotation
                  JOINT LeftHandIndex2
                  {
                    OFFSET 3.3146 -0.808304 0.5841
                    CHANNELS 3 Zrotation Xrotation Yrotation
                    JOINT LeftHandIndex3
                    {
                      OFFSET 2.2628 -0.552002 0.3989
                      CHANNELS 3 Zrotation Xrotation Yrotation
                      End Site
                      {
                        OFFSET 1.6102 -0.4807 0.2612
                      }
                    }
                  }
                }
                JOINT LeftHandMiddle1
                {
                  OFFSET 8.9937 0.895004 0.2143
                  CHANNELS 3 Zrotation Xrotation Yrotation
                  JOINT LeftHandMiddle2
                  {
                    OFFSET 4.0984 0.0113983 -0.0242
                    CHANNELS 3 Zrotation Xrotation Yrotation
                    JOINT LeftHandMiddle3
                    {
                      OFFSET 2.2716 0.00689697 -0.0138001
                      CHANNELS 3 Zrotation Xrotation Yrotation
                      End Site
                      {
                        OFFSET 2.0404 -0.1441 0.0027
                      }
                    }
                  }
                }
                JOINT LeftHandRing1
                {
                  OFFSET 8.5234 0.597198 -2.0164
                  CHANNELS 3 Zrotation Xrotation Yrotation
                  JOINT LeftHandRing2
                  {
                    OFFSET 3.7188 -0.188293 -0.2328
                    CHANNELS 3 Zrotation Xrotation Yrotation
                    JOINT LeftHandRing3
                    {
                      OFFSET 2.1191 -0.106598 -0.1332
                      CHANNELS 3 Zrotation Xrotation Yrotation
                      End Site
                      {
                        OFFSET 1.8737 -0.2304 -0.0886
                      }
                    }
                  }
                }
                JOINT LeftHandPinky1
                {
                  OFFSET 7.9094 -0.601089 -3.4825
                  CHANNELS 3 Zrotation Xrotation Yrotation
                  JOINT LeftHandPinky2
                  {
                    OFFSET 2.2874 -0.477005 -0.6314
                    CHANNELS 3 Zrotation Xrotation Yrotation
                    JOINT LeftHandPinky3
                    {
                      OFFSET 1.6774 -0.349396 -0.4633
                      CHANNELS 3 Zrotation Xrotation Yrotation
                      End Site
                      {
                        OFFSET 1.4888 -0.4091 -0.3416
                      }
                    }
                  }
                }
                JOINT LeftHandThumb1
                {
                  OFFSET 1.833 -1.3875 1.3896
                  CHANNELS 3 Zrotation Xrotation Yrotation
                  JOINT LeftHandThumb2
                  {
                    OFFSET 3.4129 -1.121 2.5732
                    CHANNELS 3 Zrotation Xrotation Yrotation
                    JOINT LeftHandThumb3
                    {
                      OFFSET 2.2474 -0.804199 1.6192
                      CHANNELS 3 Zrotation Xrotation Yrotation
                      End Site
                      {
                        OFFSET 1.6527 -0.5689 1.1317
                      }
                    }
                  }
                }
              }
            }
          }
        }
        JOINT RightShoulder
        {
          OFFSET -2.2086 21.1115 7.2329
          CHANNELS 3 Zrotation Xrotation Yrotation
          JOINT RightArm
          {
            OFFSET -13.1216 3.0287 -4.9007
            CHANNELS 3 Zrotation Xrotation Yrotation
            JOINT RightForeArm
            {
              OFFSET -27.4081 -0.0973053 -0.2375
              CHANNELS 3 Zrotation Xrotation Yrotation
              JOINT RightHand
              {
                OFFSET -22.8641 0.0664063 -0.1369
                CHANNELS 3 Zrotation Xrotation Yrotation
                JOINT RightHandIndex1
                {
                  OFFSET -8.8614 0.774994 2.4612
                  CHANNELS 3 Zrotation Xrotation Yrotation
                  JOINT RightHandIndex2
                  {
                    OFFSET -3.3146 -0.808304 0.5841
                    CHANNELS 3 Zrotation Xrotation Yrotation
                    JOINT RightHandIndex3
                    {
                      OFFSET -2.2628 -0.552002 0.3989
                      CHANNELS 3 Zrotation Xrotation Yrotation
                      End Site
                      {
                        OFFSET -1.6102 -0.4807 0.2612
                      }
                    }
                  }
                }
                JOINT RightHandMiddle1
                {
                  OFFSET -8.9937 0.894989 0.2143
                  CHANNELS 3 Zrotation Xrotation Yrotation
                  JOINT RightHandMiddle2
                  {
                    OFFSET -4.0984 0.0113983 -0.0242
                    CHANNELS 3 Zrotation Xrotation Yrotation
                    JOINT RightHandMiddle3
                    {
                      OFFSET -2.2716 0.00691223 -0.0138001
                      CHANNELS 3 Zrotation Xrotation Yrotation
                      End Site
                      {
                        OFFSET -2.0404 -0.1441 0.0027
                      }
                    }
                  }
                }
                JOINT RightHandRing1
                {
                  OFFSET -8.5234 0.597198 -2.0164
                  CHANNELS 3 Zrotation Xrotation Yrotation
                  JOINT RightHandRing2
                  {
                    OFFSET -3.7188 -0.188309 -0.2328
                    CHANNELS 3 Zrotation Xrotation Yrotation
                    JOINT RightHandRing3
                    {
                      OFFSET -2.1191 -0.106598 -0.1332
                      CHANNELS 3 Zrotation Xrotation Yrotation
                      End Site
                      {
                        OFFSET -1.8737 -0.2304 -0.0886
                      }
                    }
                  }
                }
                JOINT RightHandPinky1
                {
                  OFFSET -7.9094 -0.601105 -3.4825
                  CHANNELS 3 Zrotation Xrotation Yrotation
                  JOINT RightHandPinky2
                  {
                    OFFSET -2.2874 -0.477005 -0.6314
                    CHANNELS 3 Zrotation Xrotation Yrotation
                    JOINT RightHandPinky3
                    {
                      OFFSET -1.6774 -0.349396 -0.4633
                      CHANNELS 3 Zrotation Xrotation Yrotation
                      End Site
                      {
                        OFFSET -1.4888 -0.4091 -0.3416
                      }
                    }
                  }
                }
                JOINT RightHandThumb1
                {
                  OFFSET -1.833 -1.38751 1.3896
                  CHANNELS 3 Zrotation Xrotation Yrotation
                  JOINT RightHandThumb2
                  {
                    OFFSET -3.41299 -1.12099 2.5732
                    CHANNELS 3 Zrotation Xrotation Yrotation
                    JOINT RightHandThumb3
                    {
                      OFFSET -2.24741 -0.804108 1.6192
                      CHANNELS 3 Zrotation Xrotation Yrotation
                      End Site
                      {
                        OFFSET -1.6527 -0.5689 1.1317
                      }
                    }
                  }
                }
              }
            }
          }
        }
      }
    }
  }
  JOINT RightUpLeg
  {
    OFFSET -9.1966 3.8861 -0.7581
    CHANNELS 3 Zrotation Xrotation Yrotation
    JOINT RightLeg
    {
      OFFSET -0.7359 -41.0265 0
      CHANNELS 3 Zrotation Xrotation Yrotation
      JOINT RightFoot
      {
        OFFSET 0 -40.2855 0
        CHANNELS 3 Zrotation Xrotation Yrotation
        JOINT RightToeBase
        {
          OFFSET 0 -5.6122 11.7359
          CHANNELS 3 Zrotation Xrotation Yrotation
          End Site
          {
            OFFSET 0 0 7.8731
          }
        }
      }
    }
  }
  JOINT LeftUpLeg
  {
    OFFSET 9.1965 3.8864 -0.7581
    CHANNELS 3 Zrotation Xrotation Yrotation
    JOINT LeftLeg
    {
      OFFSET 0.7359 -41.0268 0
      CHANNELS 3 Zrotation Xrotation Yrotation
      JOINT LeftFoot
      {
        OFFSET 0 -40.2855 0
        CHANNELS 3 Zrotation Xrotation Yrotation
        JOINT LeftToeBase
        {
          OFFSET 0 -5.6122 11.7359
          CHANNELS 3 Zrotation Xrotation Yrotation
          End Site
          {
            OFFSET 0 0 7.8731
          }
        }
      }
    }
  }
}
MOTION
Frames:	6
Frame Time:	0.0333333
5.84602e-005 68.8428 3.50346 0 0 -0 0 0 -0 0 0 -0 0 0 -0 0 0 -0 0 0 -0 0 0 -0 0 0 -0 0 0 -0 0 0 -0 0 0 -0 0 0 -0 0 0 -0 0 0 -0 -0.0146107 -8.87603e-005 -2.63497e-007 2.99804e-018 -2.42657e-020 -1.42182e-022 0 0 -0 -0.0187562 -0.001176 5.858e-005 5.06224e-018 3.88251e-019 1.21329e-020 0 0 -0 -0.012269 -0.00324817 0.000675346 -1.74678e-018 3.88251e-019 -0 0 0 -0 0 0 -0 0 0 -0 0 0 -0 0 0 -0 0 0 -0 0 0 -0 0 0 -0 0 0 -0 0 0 -0 0 0 -0 0.0149955 -9.10982e-005 2.64101e-007 -9.69331e-018 1.21329e-020 -4.7394e-023 0 0 -0 0.0189956 -0.00119102 -5.96516e-005 -5.41541e-019 0 2.42657e-020 0 0 -0 0.0122698 -0.00324857 -0.000673756 -2.00796e-019 0 -1.94126e-019 0 0 -0 0 0 -0 0 0 -0 3.39842 1.33031 -0.0637918 -5.65207e-008 0.834868 -0.000436188 -3.39935 -2.16518 -0.0642563 -8.89002e-024 -1.18485e-023 -1.48106e-024 -3.39844 1.35642 0.0640283 -3.18788e-007 0.782166 -0.000588827 3.39931 -2.13858 0.0634662 1.1399e-023 0 -0 
5.20085e-005 6.18379 3.79522 0 0 -0 0 0.199557 -0 0 0.399115 -0 0 0.399115 -0 0 0.000394275 -0 -0 -1.98785e-016 -0 0 4.3861e-005 -0 -73.2707 29.9546 -3.46336 -3.20447e-005 4.88624e-006 -32.002 4.99721 6.01756e-006 1.2854e-006 -1.35188e-006 2.32594e-006 -1.58143e-006 1.26758e-006 4.04848e-006 -5.45593e-006 -6.07093e-007 3.22212e-006 -1.4512e-006 -1.35188e-006 2.32594e-006 -1.58143e-006 -0.0145981 -8.62336e-005 -5.49488e-007 -6.06926e-007 3.2223e-006 -1.45079e-006 -1.35188e-006 2.32594e-006 -1.58143e-006 -0.0187365 -0.00117111 5.51665e-005 -6.06891e-007 3.22237e-006 -1.45067e-006 -1.35188e-006 2.32594e-006 -1.58143e-006 -0.0122977 -0.00325099 0.000671635 -6.06974e-007 3.22231e-006 -1.45085e-006 -1.35188e-006 2.32594e-006 -1.58143e-006 1.26758e-006 4.04848e-006 -5.45593e-006 -6.07093e-007 3.22212e-006 -1.4512e-006 0 4.3861e-005 -0 73.2662 29.9523 3.46164 2.85094e-005 -4.63539e-006 31.9984 -10.0022 -2.14844e-006 -2.01494e-005 -6.36683e-008 1.7298e-006 2.65285e-006 -3.46507e-007 1.1753e-006 3.0659e-006 1.3836e-007 2.12587e-006 2.35781e-006 -6.36683e-008 1.7298e-006 2.65285e-006 0.0149838 -8.6676e-005 3.61194e-006 -1.16762e-006 9.4067e-007 -1.2124e-007 -6.36683e-008 1.7298e-006 2.65285e-006 0.0189599 -0.00118634 -5.28745e-005 1.38169e-007 2.12627e-006 2.35746e-006 -6.36683e-008 1.7298e-006 2.65285e-006 0.0122648 -0.00324017 -0.00066935 1.38276e-007 2.12615e-006 2.35759e-006 -6.36683e-008 1.7298e-006 2.65285e-006 -3.46507e-007 1.1753e-006 3.0659e-006 1.3836e-007 2.12587e-006 2.35781e-006 -16.2628 -41.1337 -19.284 179.917 43.39 173.738 0.927946 58.188 -4.72941 3.97569e-015 0 -1.59028e-015 16.2567 -41.1336 19.278 -179.917 43.3906 -173.738 -0.92804 58.1877 4.72945 -6.24635e-007 -1.61071e-007 1.01954e-006 
5.20085e-005 6.18379 3.79522 0 0 -0 0 0.199557 -0 0 0.399115 -0 0 0.399115 -0 0 0.000394275 -0 -0 -1.98785e-016 -0 0 4.3861e-005 -0 -73.2707 29.9546 -3.46336 -3.20447e-005 4.88624e-006 -32.002 4.99721 6.01756e-006 1.2854e-006 -1.35188e-006 2.32594e-006 -1.58143e-006 1.26758e-006 4.04848e-006 -5.45593e-006 -6.07093e-007 3.22212e-006 -1.4512e-006 -1.35188e-006 2.32594e-006 -1.58143e-006 -0.0145981 -8.62336e-005 -5.49488e-007 -6.06926e-007 3.2223e-006 -1.45079e-006 -1.35188e-006 2.32594e-006 -1.58143e-006 -0.0187365 -0.00117111 5.51665e-005 -6.06891e-007 3.22237e-006 -1.45067e-006 -1.35188e-006 2.32594e-006 -1.58143e-006 -0.0122977 -0.00325099 0.000671635 -6.06974e-007 3.22231e-006 -1.45085e-006 -1.35188e-006 2.32594e-006 -1.58143e-006 1.26758e-006 4.04848e-006 -5.45593e-006 -6.07093e-007 3.22212e-006 -1.4512e-006 0 4.3861e-005 -0 73.2662 29.9523 3.46164 2.85094e-005 -4.63539e-006 31.9984 -10.0022 -2.14844e-006 -2.01494e-005 -6.36683e-008 1.7298e-006 2.65285e-006 -3.46507e-007 1.1753e-006 3.0659e-006 1.3836e-007 2.12587e-006 2.35781e-006 -6.36683e-008 1.7298e-006 2.65285e-006 0.0149838 -8.6676e-005 3.61194e-006 -1.16762e-006 9.4067e-007 -1.2124e-007 -6.36683e-008 1.7298e-006 2.65285e-006 0.0189599 -0.00118634 -5.28745e-005 1.38169e-007 2.12627e-006 2.35746e-006 -6.36683e-008 1.7298e-006 2.65285e-006 0.0122648 -0.00324017 -0.00066935 1.38276e-007 2.12615e-006 2.35759e-006 -6.36683e-008 1.7298e-006 2.65285e-006 -3.46507e-007 1.1753e-006 3.0659e-006 1.3836e-007 2.12587e-006 2.35781e-006 -16.2628 -41.1337 -19.284 179.917 43.39 173.738 0.927959 58.1879 -4.72941 -1.97454e-007 -1.04427e-007 -8.22084e-007 16.2567 -41.1336 19.278 -179.917 43.3906 -173.738 -0.928035 58.1877 4.72945 1.14603e-006 -1.68954e-007 1.06661e-006 
5.20058e-005 6.18379 3.79522 0 0 -0 0 0.199557 -0 0 0.399115 -0 0 0.399115 -0 0 0.000394275 -0 -0 -1.98785e-016 -0 0 4.3861e-005 -0 -73.2707 29.9546 -3.46335 -2.12243e-008 -4.08294e-006 -32.002 4.99722 -3.5103e-006 4.84061e-006 -2.83934e-007 2.60966e-006 -1.95051e-006 -8.31287e-008 4.30065e-006 -4.64997e-006 4.83569e-007 1.15509e-006 -3.13635e-006 -2.83934e-007 2.60966e-006 -1.95051e-006 -0.0146102 -8.50418e-005 4.02103e-007 4.8373e-007 1.15549e-006 -3.1362e-006 -2.83934e-007 2.60966e-006 -1.95051e-006 -0.0187557 -0.00117145 4.95746e-005 4.83747e-007 1.15562e-006 -3.13617e-006 -2.83934e-007 2.60966e-006 -1.95051e-006 -0.012278 -0.00324757 0.000671582 4.83624e-007 1.15546e-006 -3.13625e-006 -2.83934e-007 2.60966e-006 -1.95051e-006 -8.31287e-008 4.30065e-006 -4.64997e-006 4.83569e-007 1.15509e-006 -3.13635e-006 0 4.3861e-005 -0 73.2662 29.9523 3.46163 1.62026e-006 -6.54312e-006 31.9984 -10.0022 -4.03163e-006 -1.23698e-005 4.04056e-007 7.92136e-007 -5.9007e-007 9.29328e-007 1.82191e-006 -1.35716e-006 -2.22231e-007 -4.35675e-007 3.24539e-007 4.04056e-007 7.92136e-007 -5.9007e-007 0.0150086 -9.09636e-005 -1.2589e-006 -2.22231e-007 -4.35632e-007 3.24596e-007 4.04056e-007 7.92136e-007 -5.9007e-007 0.0190392 -0.00119186 -5.89324e-005 -2.22228e-007 -4.35621e-007 3.24613e-007 4.04056e-007 7.92136e-007 -5.9007e-007 0.012261 -0.00324396 -0.000676976 -2.22219e-007 -4.35641e-007 3.24591e-007 4.04056e-007 7.92136e-007 -5.9007e-007 9.29328e-007 1.82191e-006 -1.35716e-006 -2.22231e-007 -4.35675e-007 3.24539e-007 -16.2628 -41.1337 -19.284 179.917 43.39 173.738 0.927926 58.188 -4.72939 -1.84162e-006 8.9632e-009 -4.27175e-007 16.2567 -41.1336 19.278 -179.917 43.3905 -173.738 -0.928039 58.1877 4.72946 -1.97453e-007 1.04405e-007 -8.22089e-007 
5.20085e-005 6.18379 3.79522 0 0 -0 0 0.199557 -0 0 0.399115 -0 0 0.399115 -0 0 0.000394275 -0 -0 -1.98785e-016 -0 0 4.3861e-005 -0 -73.2707 29.9546 -3.46336 -3.20447e-005 4.88624e-006 -32.002 4.99721 6.01756e-006 1.2854e-006 -1.35188e-006 2.32594e-006 -1.58143e-006 1.26758e-006 4.04848e-006 -5.45593e-006 -6.07093e-007 3.22212e-006 -1.4512e-006 -1.35188e-006 2.32594e-006 -1.58143e-006 -0.0145981 -8.62336e-005 -5.49488e-007 -6.06926e-007 3.2223e-006 -1.45079e-006 -1.35188e-006 2.32594e-006 -1.58143e-006 -0.0187365 -0.00117111 5.51665e-005 -6.06891e-007 3.22237e-006 -1.45067e-006 -1.35188e-006 2.32594e-006 -1.58143e-006 -0.0122977 -0.00325099 0.000671635 -6.06974e-007 3.22231e-006 -1.45085e-006 -1.35188e-006 2.32594e-006 -1.58143e-006 1.26758e-006 4.04848e-006 -5.45593e-006 -6.07093e-007 3.22212e-006 -1.4512e-006 0 4.3861e-005 -0 73.2662 29.9523 3.46164 2.85094e-005 -4.63539e-006 31.9984 -10.0022 -2.14844e-006 -2.01494e-005 -6.36683e-008 1.7298e-006 2.65285e-006 -3.46507e-007 1.1753e-006 3.0659e-006 1.3836e-007 2.12587e-006 2.35781e-006 -6.36683e-008 1.7298e-006 2.65285e-006 0.0149838 -8.6676e-005 3.61194e-006 -1.16762e-006 9.4067e-007 -1.2124e-007 -6.36683e-008 1.7298e-006 2.65285e-006 0.0189599 -0.00118634 -5.28745e-005 1.38169e-007 2.12627e-006 2.35746e-006 -6.36683e-008 1.7298e-006 2.65285e-006 0.0122648 -0.00324017 -0.00066935 1.38276e-007 2.12615e-006 2.35759e-006 -6.36683e-008 1.7298e-006 2.65285e-006 -3.46507e-007 1.1753e-006 3.0659e-006 1.3836e-007 2.12587e-006 2.35781e-006 -16.2628 -41.1337 -19.284 179.917 43.39 173.738 0.927946 58.188 -4.72941 3.97569e-015 0 -1.59028e-015 16.2567 -41.1336 19.278 -179.917 43.3906 -173.738 -0.92804 58.1877 4.72945 -6.24635e-007 -1.61071e-007 1.01954e-006 
5.20058e-005 6.18379 3.79522 0 0 -0 0 0.199557 -0 0 0.399115 -0 0 0.399115 -0 0 0.000392674 -0 -0 -1.98785e-016 -0 0 4.24736e-005 -0 -73.2707 29.9546 -3.46335 -2.59155e-005 4.52793e-006 -32.002 4.99721 -5.47317e-006 2.92978e-006 1.6041e-007 1.76754e-006 -2.63705e-006 -1.09066e-006 2.06703e-006 1.68515e-006 9.46758e-007 5.13397e-007 -1.81836e-007 1.6041e-007 1.76754e-006 -2.63705e-006 -0.0145872 -8.7752e-005 -4.64655e-006 9.45461e-007 5.13412e-007 -1.81771e-007 1.6041e-007 1.76754e-006 -2.63705e-006 -0.0187331 -0.00117004 5.86896e-005 7.9807e-008 1.92108e-006 -2.51191e-006 1.6041e-007 1.76754e-006 -2.63705e-006 -0.0122753 -0.00324935 0.000680939 7.96991e-008 1.92096e-006 -2.51203e-006 1.6041e-007 1.76754e-006 -2.63705e-006 -1.09066e-006 2.06703e-006 1.68515e-006 9.46758e-007 5.13397e-007 -1.81836e-007 0 4.24736e-005 -0 73.2662 29.9523 3.46163 -1.44323e-006 6.02943e-006 31.9984 -10.0022 -4.85727e-006 -2.28935e-005 2.02028e-008 3.96068e-008 -2.95035e-008 3.18055e-015 6.36111e-015 -3.18055e-015 1.01014e-007 1.98034e-007 -1.47517e-007 2.02028e-008 3.96068e-008 -2.95035e-008 0.0149906 -9.17882e-005 4.66195e-006 1.01014e-007 1.98015e-007 -1.47543e-007 2.02028e-008 3.96068e-008 -2.95035e-008 0.0190024 -0.00118982 -5.63449e-005 1.01013e-007 1.9801e-007 -1.47551e-007 2.02028e-008 3.96068e-008 -2.95035e-008 0.0122549 -0.00324512 -0.000678088 1.01009e-007 1.98019e-007 -1.47542e-007 2.02028e-008 3.96068e-008 -2.95035e-008 3.18055e-015 6.36111e-015 -3.18055e-015 1.01014e-007 1.98034e-007 -1.47517e-007 -16.2629 -41.1337 -19.2841 179.917 43.39 173.738 0.92793 58.188 -4.72939 3.18055e-015 0 1.59028e-015 16.2567 -41.1336 19.278 -179.917 43.3904 -173.738 -0.928041 58.1876 4.72944 -4.27182e-007 -2.65476e-007 1.84163e-006 
